<svg xmlns="http://www.w3.org/2000/svg" viewBox="0 0 396 396" width="360" height="360" font-family="Helvetica, Arial, sans-serif">
<defs><marker id="ah" viewBox="0 0 10 10" refX="5" refY="5" markerWidth="3.2" markerHeight="3.2" orient="auto-start-reverse"><path d="M0,0 L10,5 L0,10 z" fill="#2b6cb0"/></marker></defs>
<rect x="0" y="0" width="396" height="396" fill="#ffffff"/>
<rect x="16.5" y="16.5" width="363" height="363" fill="none" stroke="#5c4033" stroke-width="1.5"/>
<rect x="18" y="333" width="45" height="45" fill="#b58863"/>
<rect x="63" y="333" width="45" height="45" fill="#f0d9b5"/>
<rect x="108" y="333" width="45" height="45" fill="#b58863"/>
<rect x="153" y="333" width="45" height="45" fill="#f0d9b5"/>
<rect x="198" y="333" width="45" height="45" fill="#b58863"/>
<rect x="243" y="333" width="45" height="45" fill="#f0d9b5"/>
<rect x="288" y="333" width="45" height="45" fill="#b58863"/>
<rect x="333" y="333" width="45" height="45" fill="#f0d9b5"/>
<rect x="18" y="288" width="45" height="45" fill="#f0d9b5"/>
<rect x="63" y="288" width="45" height="45" fill="#b58863"/>
<rect x="108" y="288" width="45" height="45" fill="#f0d9b5"/>
<rect x="153" y="288" width="45" height="45" fill="#b58863"/>
<rect x="198" y="288" width="45" height="45" fill="#f0d9b5"/>
<rect x="243" y="288" width="45" height="45" fill="#b58863"/>
<rect x="288" y="288" width="45" height="45" fill="#f0d9b5"/>
<rect x="333" y="288" width="45" height="45" fill="#b58863"/>
<rect x="18" y="243" width="45" height="45" fill="#b58863"/>
<rect x="63" y="243" width="45" height="45" fill="#f0d9b5"/>
<rect x="108" y="243" width="45" height="45" fill="#b58863"/>
<rect x="153" y="243" width="45" height="45" fill="#f0d9b5"/>
<rect x="198" y="243" width="45" height="45" fill="#b58863"/>
<rect x="243" y="243" width="45" height="45" fill="#f0d9b5"/>
<rect x="288" y="243" width="45" height="45" fill="#b58863"/>
<rect x="333" y="243" width="45" height="45" fill="#f0d9b5"/>
<rect x="18" y="198" width="45" height="45" fill="#f0d9b5"/>
<rect x="63" y="198" width="45" height="45" fill="#b58863"/>
<rect x="108" y="198" width="45" height="45" fill="#f0d9b5"/>
<rect x="153" y="198" width="45" height="45" fill="#b58863"/>
<rect x="198" y="198" width="45" height="45" fill="#f0d9b5"/>
<rect x="243" y="198" width="45" height="45" fill="#b58863"/>
<rect x="288" y="198" width="45" height="45" fill="#f0d9b5"/>
<rect x="333" y="198" width="45" height="45" fill="#b58863"/>
<rect x="18" y="153" width="45" height="45" fill="#b58863"/>
<rect x="63" y="153" width="45" height="45" fill="#f0d9b5"/>
<rect x="108" y="153" width="45" height="45" fill="#b58863"/>
<rect x="153" y="153" width="45" height="45" fill="#f0d9b5"/>
<rect x="198" y="153" width="45" height="45" fill="#b58863"/>
<rect x="243" y="153" width="45" height="45" fill="#f0d9b5"/>
<rect x="288" y="153" width="45" height="45" fill="#b58863"/>
<rect x="333" y="153" width="45" height="45" fill="#f0d9b5"/>
<rect x="18" y="108" width="45" height="45" fill="#f0d9b5"/>
<rect x="63" y="108" width="45" height="45" fill="#b58863"/>
<rect x="108" y="108" width="45" height="45" fill="#f0d9b5"/>
<rect x="153" y="108" width="45" height="45" fill="#b58863"/>
<rect x="198" y="108" width="45" height="45" fill="#f0d9b5"/>
<rect x="243" y="108" width="45" height="45" fill="#b58863"/>
<rect x="288" y="108" width="45" height="45" fill="#f0d9b5"/>
<rect x="333" y="108" width="45" height="45" fill="#b58863"/>
<rect x="18" y="63" width="45" height="45" fill="#b58863"/>
<rect x="63" y="63" width="45" height="45" fill="#f0d9b5"/>
<rect x="108" y="63" width="45" height="45" fill="#b58863"/>
<rect x="153" y="63" width="45" height="45" fill="#f0d9b5"/>
<rect x="198" y="63" width="45" height="45" fill="#b58863"/>
<rect x="243" y="63" width="45" height="45" fill="#f0d9b5"/>
<rect x="288" y="63" width="45" height="45" fill="#b58863"/>
<rect x="333" y="63" width="45" height="45" fill="#f0d9b5"/>
<rect x="18" y="18" width="45" height="45" fill="#f0d9b5"/>
<rect x="63" y="18" width="45" height="45" fill="#b58863"/>
<rect x="108" y="18" width="45" height="45" fill="#f0d9b5"/>
<rect x="153" y="18" width="45" height="45" fill="#b58863"/>
<rect x="198" y="18" width="45" height="45" fill="#f0d9b5"/>
<rect x="243" y="18" width="45" height="45" fill="#b58863"/>
<rect x="288" y="18" width="45" height="45" fill="#f0d9b5"/>
<rect x="333" y="18" width="45" height="45" fill="#b58863"/>
<text x="40" y="392" font-size="11" text-anchor="middle" fill="#555">a</text>
<text x="9" y="44" font-size="11" text-anchor="middle" fill="#555">8</text>
<text x="85" y="392" font-size="11" text-anchor="middle" fill="#555">b</text>
<text x="9" y="89" font-size="11" text-anchor="middle" fill="#555">7</text>
<text x="130" y="392" font-size="11" text-anchor="middle" fill="#555">c</text>
<text x="9" y="134" font-size="11" text-anchor="middle" fill="#555">6</text>
<text x="175" y="392" font-size="11" text-anchor="middle" fill="#555">d</text>
<text x="9" y="179" font-size="11" text-anchor="middle" fill="#555">5</text>
<text x="220" y="392" font-size="11" text-anchor="middle" fill="#555">e</text>
<text x="9" y="224" font-size="11" text-anchor="middle" fill="#555">4</text>
<text x="265" y="392" font-size="11" text-anchor="middle" fill="#555">f</text>
<text x="9" y="269" font-size="11" text-anchor="middle" fill="#555">3</text>
<text x="310" y="392" font-size="11" text-anchor="middle" fill="#555">g</text>
<text x="9" y="314" font-size="11" text-anchor="middle" fill="#555">2</text>
<text x="355" y="392" font-size="11" text-anchor="middle" fill="#555">h</text>
<text x="9" y="359" font-size="11" text-anchor="middle" fill="#555">1</text>
<g transform="translate(153,198)" fill="#ffffff" stroke="#1a1a1a" stroke-width="1.5" stroke-linejoin="round"><circle cx="7" cy="12" r="2.5"/><circle cx="15" cy="8.5" r="2.5"/><circle cx="22.5" cy="7" r="2.5"/><circle cx="30" cy="8.5" r="2.5"/><circle cx="38" cy="12" r="2.5"/><path d="M9 26 l-2 -12 l7 9 l1 -12 l5 11 l2.5 -13 l2.5 13 l5 -11 l1 12 l7 -9 l-2 12 z"/><path d="M9 26 c0 2 1.5 2 2.5 4 c1 1.5 1 1 0.5 3.5 c-1.5 1 -1.5 2.5 -1.5 2.5 c-1.5 1.5 0.5 2.5 0.5 2.5 c6.5 1 16.5 1 23 0 c0 0 1.5 -1 0 -2.5 c0 0 0.5 -1.5 -1 -2.5 c-0.5 -2.5 -0.5 -2 0.5 -3.5 c1 -2 2.5 -2 2.5 -4 c-8.5 -1.5 -18.5 -1.5 -27 0 z"/></g>
<circle cx="175.5" cy="355.5" r="7" fill="#2f855a" fill-opacity="0.7"/>
<circle cx="175.5" cy="310.5" r="7" fill="#2f855a" fill-opacity="0.7"/>
<circle cx="175.5" cy="265.5" r="7" fill="#2f855a" fill-opacity="0.7"/>
<circle cx="175.5" cy="175.5" r="7" fill="#2f855a" fill-opacity="0.7"/>
<circle cx="175.5" cy="130.5" r="7" fill="#2f855a" fill-opacity="0.7"/>
<circle cx="175.5" cy="85.5" r="7" fill="#2f855a" fill-opacity="0.7"/>
<circle cx="175.5" cy="40.5" r="7" fill="#2f855a" fill-opacity="0.7"/>
<circle cx="40.5" cy="220.5" r="7" fill="#2f855a" fill-opacity="0.7"/>
<circle cx="85.5" cy="220.5" r="7" fill="#2f855a" fill-opacity="0.7"/>
<circle cx="130.5" cy="220.5" r="7" fill="#2f855a" fill-opacity="0.7"/>
<circle cx="220.5" cy="220.5" r="7" fill="#2f855a" fill-opacity="0.7"/>
<circle cx="265.5" cy="220.5" r="7" fill="#2f855a" fill-opacity="0.7"/>
<circle cx="310.5" cy="220.5" r="7" fill="#2f855a" fill-opacity="0.7"/>
<circle cx="355.5" cy="220.5" r="7" fill="#2f855a" fill-opacity="0.7"/>
<circle cx="40.5" cy="355.5" r="7" fill="#2f855a" fill-opacity="0.7"/>
<circle cx="85.5" cy="310.5" r="7" fill="#2f855a" fill-opacity="0.7"/>
<circle cx="130.5" cy="265.5" r="7" fill="#2f855a" fill-opacity="0.7"/>
<circle cx="220.5" cy="175.5" r="7" fill="#2f855a" fill-opacity="0.7"/>
<circle cx="265.5" cy="130.5" r="7" fill="#2f855a" fill-opacity="0.7"/>
<circle cx="310.5" cy="85.5" r="7" fill="#2f855a" fill-opacity="0.7"/>
<circle cx="355.5" cy="40.5" r="7" fill="#2f855a" fill-opacity="0.7"/>
<circle cx="40.5" cy="85.5" r="7" fill="#2f855a" fill-opacity="0.7"/>
<circle cx="85.5" cy="130.5" r="7" fill="#2f855a" fill-opacity="0.7"/>
<circle cx="130.5" cy="175.5" r="7" fill="#2f855a" fill-opacity="0.7"/>
<circle cx="220.5" cy="265.5" r="7" fill="#2f855a" fill-opacity="0.7"/>
<circle cx="265.5" cy="310.5" r="7" fill="#2f855a" fill-opacity="0.7"/>
<circle cx="310.5" cy="355.5" r="7" fill="#2f855a" fill-opacity="0.7"/>
</svg>
