<svg xmlns="http://www.w3.org/2000/svg" viewBox="0 0 396 396" width="360" height="360" font-family="Helvetica, Arial, sans-serif">
<defs><marker id="ah" viewBox="0 0 10 10" refX="5" refY="5" markerWidth="3.2" markerHeight="3.2" orient="auto-start-reverse"><path d="M0,0 L10,5 L0,10 z" fill="#2b6cb0"/></marker></defs>
<rect x="0" y="0" width="396" height="396" fill="#ffffff"/>
<rect x="16.5" y="16.5" width="363" height="363" fill="none" stroke="#5c4033" stroke-width="1.5"/>
<rect x="18" y="333" width="45" height="45" fill="#b58863"/>
<rect x="63" y="333" width="45" height="45" fill="#f0d9b5"/>
<rect x="108" y="333" width="45" height="45" fill="#b58863"/>
<rect x="153" y="333" width="45" height="45" fill="#f0d9b5"/>
<rect x="198" y="333" width="45" height="45" fill="#b58863"/>
<rect x="243" y="333" width="45" height="45" fill="#f0d9b5"/>
<rect x="243" y="333" width="45" height="45" fill="#f6e05e" fill-opacity="0.75"/>
<rect x="288" y="333" width="45" height="45" fill="#b58863"/>
<rect x="288" y="333" width="45" height="45" fill="#f6e05e" fill-opacity="0.75"/>
<rect x="333" y="333" width="45" height="45" fill="#f0d9b5"/>
<rect x="18" y="288" width="45" height="45" fill="#f0d9b5"/>
<rect x="63" y="288" width="45" height="45" fill="#b58863"/>
<rect x="108" y="288" width="45" height="45" fill="#f0d9b5"/>
<rect x="153" y="288" width="45" height="45" fill="#b58863"/>
<rect x="198" y="288" width="45" height="45" fill="#f0d9b5"/>
<rect x="243" y="288" width="45" height="45" fill="#b58863"/>
<rect x="288" y="288" width="45" height="45" fill="#f0d9b5"/>
<rect x="333" y="288" width="45" height="45" fill="#b58863"/>
<rect x="18" y="243" width="45" height="45" fill="#b58863"/>
<rect x="63" y="243" width="45" height="45" fill="#f0d9b5"/>
<rect x="108" y="243" width="45" height="45" fill="#b58863"/>
<rect x="153" y="243" width="45" height="45" fill="#f0d9b5"/>
<rect x="198" y="243" width="45" height="45" fill="#b58863"/>
<rect x="243" y="243" width="45" height="45" fill="#f0d9b5"/>
<rect x="288" y="243" width="45" height="45" fill="#b58863"/>
<rect x="333" y="243" width="45" height="45" fill="#f0d9b5"/>
<rect x="18" y="198" width="45" height="45" fill="#f0d9b5"/>
<rect x="63" y="198" width="45" height="45" fill="#b58863"/>
<rect x="108" y="198" width="45" height="45" fill="#f0d9b5"/>
<rect x="153" y="198" width="45" height="45" fill="#b58863"/>
<rect x="198" y="198" width="45" height="45" fill="#f0d9b5"/>
<rect x="243" y="198" width="45" height="45" fill="#b58863"/>
<rect x="288" y="198" width="45" height="45" fill="#f0d9b5"/>
<rect x="333" y="198" width="45" height="45" fill="#b58863"/>
<rect x="18" y="153" width="45" height="45" fill="#b58863"/>
<rect x="63" y="153" width="45" height="45" fill="#f0d9b5"/>
<rect x="108" y="153" width="45" height="45" fill="#b58863"/>
<rect x="153" y="153" width="45" height="45" fill="#f0d9b5"/>
<rect x="198" y="153" width="45" height="45" fill="#b58863"/>
<rect x="243" y="153" width="45" height="45" fill="#f0d9b5"/>
<rect x="288" y="153" width="45" height="45" fill="#b58863"/>
<rect x="333" y="153" width="45" height="45" fill="#f0d9b5"/>
<rect x="18" y="108" width="45" height="45" fill="#f0d9b5"/>
<rect x="63" y="108" width="45" height="45" fill="#b58863"/>
<rect x="108" y="108" width="45" height="45" fill="#f0d9b5"/>
<rect x="153" y="108" width="45" height="45" fill="#b58863"/>
<rect x="198" y="108" width="45" height="45" fill="#f0d9b5"/>
<rect x="243" y="108" width="45" height="45" fill="#b58863"/>
<rect x="288" y="108" width="45" height="45" fill="#f0d9b5"/>
<rect x="333" y="108" width="45" height="45" fill="#b58863"/>
<rect x="18" y="63" width="45" height="45" fill="#b58863"/>
<rect x="63" y="63" width="45" height="45" fill="#f0d9b5"/>
<rect x="108" y="63" width="45" height="45" fill="#b58863"/>
<rect x="153" y="63" width="45" height="45" fill="#f0d9b5"/>
<rect x="198" y="63" width="45" height="45" fill="#b58863"/>
<rect x="243" y="63" width="45" height="45" fill="#f0d9b5"/>
<rect x="288" y="63" width="45" height="45" fill="#b58863"/>
<rect x="333" y="63" width="45" height="45" fill="#f0d9b5"/>
<rect x="18" y="18" width="45" height="45" fill="#f0d9b5"/>
<rect x="63" y="18" width="45" height="45" fill="#b58863"/>
<rect x="108" y="18" width="45" height="45" fill="#f0d9b5"/>
<rect x="153" y="18" width="45" height="45" fill="#b58863"/>
<rect x="198" y="18" width="45" height="45" fill="#f0d9b5"/>
<rect x="243" y="18" width="45" height="45" fill="#b58863"/>
<rect x="288" y="18" width="45" height="45" fill="#f0d9b5"/>
<rect x="333" y="18" width="45" height="45" fill="#b58863"/>
<text x="40" y="392" font-size="11" text-anchor="middle" fill="#555">a</text>
<text x="9" y="44" font-size="11" text-anchor="middle" fill="#555">8</text>
<text x="85" y="392" font-size="11" text-anchor="middle" fill="#555">b</text>
<text x="9" y="89" font-size="11" text-anchor="middle" fill="#555">7</text>
<text x="130" y="392" font-size="11" text-anchor="middle" fill="#555">c</text>
<text x="9" y="134" font-size="11" text-anchor="middle" fill="#555">6</text>
<text x="175" y="392" font-size="11" text-anchor="middle" fill="#555">d</text>
<text x="9" y="179" font-size="11" text-anchor="middle" fill="#555">5</text>
<text x="220" y="392" font-size="11" text-anchor="middle" fill="#555">e</text>
<text x="9" y="224" font-size="11" text-anchor="middle" fill="#555">4</text>
<text x="265" y="392" font-size="11" text-anchor="middle" fill="#555">f</text>
<text x="9" y="269" font-size="11" text-anchor="middle" fill="#555">3</text>
<text x="310" y="392" font-size="11" text-anchor="middle" fill="#555">g</text>
<text x="9" y="314" font-size="11" text-anchor="middle" fill="#555">2</text>
<text x="355" y="392" font-size="11" text-anchor="middle" fill="#555">h</text>
<text x="9" y="359" font-size="11" text-anchor="middle" fill="#555">1</text>
<g transform="translate(18,18)" fill="#1a1a1a" stroke="#1a1a1a" stroke-width="1.5" stroke-linejoin="round"><path d="M11 9 h5 v3.5 h3.5 v-3.5 h6 v3.5 h3.5 v-3.5 h5 v7 l-3 2.5 h-17 l-3 -2.5 z"/><path d="M14.5 18.5 h16 l1.5 15 h-19 z"/><path d="M10 34 h25 v5 h-25 z"/></g>
<g transform="translate(198,18)" fill="#1a1a1a" stroke="#1a1a1a" stroke-width="1.5" stroke-linejoin="round"><path d="M21.2 4 h2.6 v3 h3 v2.6 h-3 v4 h-2.6 v-4 h-3 v-2.6 h3 z"/><path d="M22.5 25 c0 0 4.5-7.5 3-10.5 c0 0-1-2.5-3-2.5 s-3 2.5-3 2.5 c-1.5 3 3 10.5 3 10.5"/><path d="M12.5 37 c5.5 3.5 14.5 3.5 20 0 v-7 c0 0 9-4.5 6-10.5 c-4-6.5-13.5-3.5-16 4 v3.5 v-3.5 c-2.5-7.5-12-10.5-16-4 c-3 6 6 10.5 6 10.5 z"/></g>
<g transform="translate(333,18)" fill="#1a1a1a" stroke="#1a1a1a" stroke-width="1.5" stroke-linejoin="round"><path d="M11 9 h5 v3.5 h3.5 v-3.5 h6 v3.5 h3.5 v-3.5 h5 v7 l-3 2.5 h-17 l-3 -2.5 z"/><path d="M14.5 18.5 h16 l1.5 15 h-19 z"/><path d="M10 34 h25 v5 h-25 z"/></g>
<g transform="translate(18,333)" fill="#ffffff" stroke="#1a1a1a" stroke-width="1.5" stroke-linejoin="round"><path d="M11 9 h5 v3.5 h3.5 v-3.5 h6 v3.5 h3.5 v-3.5 h5 v7 l-3 2.5 h-17 l-3 -2.5 z"/><path d="M14.5 18.5 h16 l1.5 15 h-19 z"/><path d="M10 34 h25 v5 h-25 z"/></g>
<g transform="translate(243,333)" fill="#ffffff" stroke="#1a1a1a" stroke-width="1.5" stroke-linejoin="round"><path d="M11 9 h5 v3.5 h3.5 v-3.5 h6 v3.5 h3.5 v-3.5 h5 v7 l-3 2.5 h-17 l-3 -2.5 z"/><path d="M14.5 18.5 h16 l1.5 15 h-19 z"/><path d="M10 34 h25 v5 h-25 z"/></g>
<g transform="translate(288,333)" fill="#ffffff" stroke="#1a1a1a" stroke-width="1.5" stroke-linejoin="round"><path d="M21.2 4 h2.6 v3 h3 v2.6 h-3 v4 h-2.6 v-4 h-3 v-2.6 h3 z"/><path d="M22.5 25 c0 0 4.5-7.5 3-10.5 c0 0-1-2.5-3-2.5 s-3 2.5-3 2.5 c-1.5 3 3 10.5 3 10.5"/><path d="M12.5 37 c5.5 3.5 14.5 3.5 20 0 v-7 c0 0 9-4.5 6-10.5 c-4-6.5-13.5-3.5-16 4 v3.5 v-3.5 c-2.5-7.5-12-10.5-16-4 c-3 6 6 10.5 6 10.5 z"/></g>
</svg>
